<svg width="876" height="254" viewBox="0 0 876 254" fill="none" xmlns="http://www.w3.org/2000/svg">
<path fill-rule="evenodd" clip-rule="evenodd" d="M720.527 0.859131L714.814 23.423L705.202 47.8067H698.046L692.252 42.2763L662.143 48.2981V65.0485L661.282 64.6696V39.2487L631.915 24.5654L618.998 26.3288L559.423 42.5637L546.424 44.6028L523.351 53.7762L526.629 114.539L523.855 111.468H494.654V116.52H469.202L452.628 121.366L445.063 130.192L439.01 165.96L432.179 178.89L399.879 185.563L378.577 203.913H54.0109L42.3718 212.871L26.5396 220.384L0.634338 238.23V253.845L871.018 249.924L875.367 212.562L855.273 204.921L851.949 192.087V100.848H843.622L827.255 89.9949V49.7371L814.645 29.9995L768.063 16.9566L753.153 29.2354L751.354 63.9084L737.006 31.6252L732.562 7.05274L720.527 0.859131Z" fill="#D9D9D9"/>
</svg>
